<svg xmlns="http://www.w3.org/2000/svg" height="48" viewBox="0 -960 960 960" width="48"><path d="M140-148q-30.75 0-51.875-21.125T67-221v-518q0-30.75 21.125-51.875T140-812h680q30.75 0 51.875 21.125T893-739v518q0 30.75-21.125 51.875T820-148H140Zm0-73h680v-518H140v518Zm0 0v-518 518Zm510-43 51-51-84-83q14-22.938 22-47.606 8-24.669 8-51.394 0-76.25-52.826-129.625T465.882-680q-77.132 0-131.007 53.118Q281-573.765 281-496.882 281-420 334.958-367 388.917-314 466-314q27 0 53-8t47-25l84 83ZM466-387q-45.58 0-78.79-32.365Q354-451.73 354-497.155q0-45.425 33.21-77.635Q420.42-607 465.5-607q45.08 0 76.79 32Q574-543 574-497t-31.74 78q-31.74 32-76.26 32Z"/></svg>