<svg xmlns="http://www.w3.org/2000/svg" height="48" viewBox="0 -960 960 960" width="48"><path d="M480-487q-71.462 0-116.231-44.769Q319-576.537 319-648t44.769-116.231Q408.538-809 480-809q71.463 0 116.231 44.769Q641-719.463 641-648t-44.769 116.231Q551.463-487 480-487ZM145-130v-109q0-41 20.094-70.375T217-354q69-32 133.454-47.5 64.454-15.5 129.5-15.5T609-401q64 16 132.921 47.194 33.114 15.376 53.096 44.591Q815-280 815-239v109H145Zm73-73h524v-36q0-16-8.325-29.674T713-288q-65-31-120-43.5T480-344q-58 0-113.5 12.5T247-288q-13 6-21 19.31-8 13.311-8 29.69v36Zm262-357q38 0 63-25t25-63q0-38-25-63t-63-25q-38 0-63 25t-25 63q0 38 25 63t63 25Zm0-88Zm0 445Z"/></svg>