<svg xmlns="http://www.w3.org/2000/svg" height="48" viewBox="0 -960 960 960" width="48"><path d="M304.193-527Q322-527 334.5-539.693t12.5-30.5Q347-588 334.307-600.5t-30.5-12.5Q286-613 273.5-600.307t-12.5 30.5Q261-552 273.693-539.5t30.5 12.5Zm179 0Q501-527 513.5-539.693t12.5-30.5Q526-588 513.307-600.5t-30.5-12.5Q465-613 452.5-600.307t-12.5 30.5Q440-552 452.693-539.5t30.5 12.5Zm172 0Q673-527 685.5-539.693t12.5-30.5Q698-588 685.307-600.5t-30.5-12.5Q637-613 624.5-600.307t-12.5 30.5Q612-552 624.693-539.5t30.5 12.5ZM64-59v-770q0-28.725 22.138-50.862Q108.275-902 137-902h686q28.725 0 50.862 22.138Q896-857.725 896-829v524q0 28.725-22.138 50.863Q851.725-232 823-232H237L64-59Zm142-246h617v-524H137v599l69-75Zm-69 0v-524 524Z"/></svg>